# xmcd CD database file
#
# Track frame offsets:
#	150
#	21272
#	37435
#	55884
#	72590
#	91392
#	110965
#	129117
#	147573
#	165272
#	184771
#	204203
#	219860
#	235806
#	251079
#	267102
#	283231
#	300375
#	318430
#	340507
#
# Disc length: 4770 seconds
#
# Revision: 1
# Processed by: cddbd v1.5.2PL0 Copyright (c) Steve Scherf et al.
# Submitted via: CDex 1.51
#
DISCID=2912a014
DTITLE=Various Artist - ZM-Pop-B-Disc-6
DYEAR=1900
DGENRE=Blues
TTITLE0=OneRepublic - Counting Stars
TTITLE1=Saturdays The Ft Sean Paul - What About Us
TTITLE2=Selena Gomez - Come And Get It
TTITLE3=Selena Gomez - Slow Down
TTITLE4=Stereophonics The - Graffiti On The Train
TTITLE5=Stereophonics The - Indian Summer
TTITLE6=Stooshe - Slip
TTITLE7=Taylor Swift - 22
TTITLE8=Taylor Swift - I Knew You Trouble
TTITLE9=Taylor Swift Ft Ed Sheeran - Everything Has Changed
TTITLE10=Union J - Beautiful Life
TTITLE11=Union J - Loving You Is Easy
TTITLE12=Vamps The - Can We Dance
TTITLE13=Vamps The - Wild Heart
TTITLE14=Wanted The - Show Me Love (America)
TTITLE15=Wanted The - Walks Like Rihanna
TTITLE16=Wanted The - We Own The Night
TTITLE17=Wilkinson - Afterglow
TTITLE18=Will.i.am Ft Britney Spears - Scream And Shout
TTITLE19=Zedd Ft Hayley Williams - Stay The Night
EXTD=
EXTT0=
EXTT1=
EXTT2=
EXTT3=
EXTT4=
EXTT5=
EXTT6=
EXTT7=
EXTT8=
EXTT9=
EXTT10=
EXTT11=
EXTT12=
EXTT13=
EXTT14=
EXTT15=
EXTT16=
EXTT17=
EXTT18=
EXTT19=
PLAYORDER=
